# xmcd
#
# Track frame offsets: 
#        150
#        14183
#        28790
#        43330
#        64663
#        78110
#        93875
#        108700
#        122568
#        137360
#        150648
#        177013
#
# Disc length: 2579 seconds
#
# Revision: 1
# Processed by: cddbd v1.5.2PL0 Copyright (c) Steve Scherf et al.
# Submitted via: ExactAudioCopyFreeDBPlugin 1.0
#
DISCID=960a110c
DTITLE=Various Artist - Didn't It Blow Your Mind!:  Soul Hits of the 
DTITLE='70s [Rhino series]
DYEAR=1991
DGENRE=SMB
TTITLE0=The Originals - The Bells
TTITLE1=The Friends Of Distinction - Love or Let Me Be Lonely
TTITLE2=The Honey Cone - Girls it Ain't Easy
TTITLE3=El Chicano - Viva Tirado, Part 1
TTITLE4=Tyrone Davis - Turn Back the Hands of Time
TTITLE5=The Moments - Love on a Two Way Street
TTITLE6=Les McCann and Eddie Harris - Compared to What
TTITLE7=Charles Wright and The Watts 103rd Street Rhythm Band - Love L
TTITLE7=and
TTITLE8=The Five Stairsteps - Ooh Child
TTITLE9=Freda Payne - Band of Gold
TTITLE10=Pacific Gas And Electric - Are You Ready
TTITLE11=The Three Degrees - Maybe
EXTD=
EXTT0=
EXTT1=
EXTT2=
EXTT3=
EXTT4=
EXTT5=
EXTT6=
EXTT7=
EXTT8=
EXTT9=
EXTT10=
EXTT11=
PLAYORDER=
